<svg xmlns="http://www.w3.org/2000/svg" style="display: none;">
  <symbol id="icon-facebook-square" viewBox="0 0 960 960">
    <g>
      <path d="M512,960c-170.67,0-341.33,0-512,0C0,640,0,320,0,0c320,0,640,0,960,0c0,320,0,640,0,960c-99,0-198,0-297,0
        c0.09-2.32,0.27-4.65,0.27-6.97c0.01-119.32,0.01-238.64,0.01-357.96c0-2.11,0-4.22,0-6.78c2.59,0,4.55,0,6.51,0
        c37.5,0,74.99-0.07,112.49,0.09c4.18,0.02,5.73-1.1,6.27-5.39c5.59-44.42,11.4-88.82,17.16-133.22c0.9-6.93,0.92-6.95-6.1-6.95
        c-43.33-0.01-86.66,0-129.99,0c-1.94,0-3.89,0-6.07,0c-0.11-1.92-0.26-3.22-0.26-4.51c-0.01-30-0.13-59.99,0.09-89.99
        c0.05-7.3,0.83-14.64,1.96-21.86c3.7-23.76,18.03-38.77,41.71-42.96c9.62-1.7,19.52-2.3,29.31-2.45
        c22.99-0.34,45.99-0.24,68.99-0.01c4.89,0.05,6.09-1.48,6.07-6.23c-0.19-38.99-0.1-77.99-0.1-116.99c0-7.37,0-7.38-7.13-8.26
        c-2.48-0.31-4.95-0.67-7.44-0.82c-19.44-1.17-38.88-2.68-58.34-3.36c-31.29-1.1-62.58-2.08-93.44,5.38
        c-49.53,11.96-87.51,39.03-110.96,84.81c-14.52,28.36-21.06,58.88-21.39,90.63c-0.39,37.16-0.21,74.32-0.29,111.48
        c0,1.6-0.16,3.2-0.26,5.14c-2.47,0-4.45,0-6.42,0c-37.5,0-74.99,0-112.49,0c-6.44,0-6.45,0.02-6.45,6.64c0,44,0,87.99,0,131.99
        c0,6.84,0.01,6.84,6.62,6.84c37.66,0,75.32,0,112.99,0c1.79,0,3.58,0,5.73,0c0.11,1.88,0.26,3.33,0.26,4.78
        c0.01,120.15,0,240.31-0.02,360.46C512.3,955.68,512.11,957.84,512,960z"/>
      <path fill="#FFFFFF" d="M512,960c0.11-2.16,0.3-4.32,0.3-6.48c0.02-120.15,0.02-240.31,0.02-360.46c0-1.45-0.15-2.9-0.26-4.78
        c-2.15,0-3.94,0-5.73,0c-37.66,0-75.32,0-112.99,0c-6.62,0-6.62-0.01-6.62-6.84c0-43.99,0-87.99,0-131.99
        c0-6.62,0.01-6.64,6.45-6.64c37.5-0.01,74.99,0,112.49,0c1.98,0,3.95,0,6.42,0c0.1-1.93,0.26-3.54,0.26-5.14
        c0.08-37.16-0.09-74.33,0.29-111.48c0.33-31.74,6.86-62.27,21.39-90.63c23.45-45.78,61.43-72.85,110.96-84.81
        c30.86-7.45,62.15-6.48,93.44-5.38c19.46,0.69,38.9,2.19,58.34,3.36c2.49,0.15,4.96,0.51,7.44,0.82c7.13,0.89,7.13,0.9,7.13,8.26
        c0,39-0.08,77.99,0.1,116.99c0.02,4.75-1.18,6.28-6.07,6.23c-22.99-0.24-46-0.34-68.99,0.01c-9.79,0.15-19.69,0.75-29.31,2.45
        c-23.68,4.19-38.01,19.2-41.71,42.96c-1.12,7.22-1.9,14.57-1.96,21.86c-0.22,30-0.1,59.99-0.09,89.99c0,1.29,0.14,2.59,0.26,4.51
        c2.18,0,4.13,0,6.07,0c43.33,0,86.66,0,129.99,0c7.02,0,7,0.01,6.1,6.95c-5.76,44.4-11.57,88.8-17.16,133.22
        c-0.54,4.29-2.09,5.4-6.27,5.39c-37.5-0.16-74.99-0.09-112.49-0.09c-1.96,0-3.93,0-6.51,0c0,2.57,0,4.68,0,6.78
        c0,119.32,0,238.64-0.01,357.96c0,2.32-0.18,4.65-0.27,6.97C612.67,960,562.33,960,512,960z"/>
    </g>
  </symbol>
</svg>