<?xml version="1.0" encoding="UTF-8" standalone="no" ?>
<!DOCTYPE svg PUBLIC "-//W3C//DTD SVG 1.1//EN" "http://www.w3.org/Graphics/SVG/1.1/DTD/svg11.dtd">
<svg xmlns="http://www.w3.org/2000/svg" xmlns:xlink="http://www.w3.org/1999/xlink" version="1.1" width="300" height="300" viewBox="0 0 300 300" xml:space="preserve">
<desc>Created with Fabric.js 3.6.6</desc>
<defs>
</defs>
<rect x="0" y="0" width="100%" height="100%" fill="rgba(238, 238, 238, 1)"></rect>
<g transform="matrix(1 0 0 1 207.9 204.93)"  >
<path style="stroke: rgb(0,0,0); stroke-width: 1; stroke-dasharray: none; stroke-linecap: round; stroke-dashoffset: 0; stroke-linejoin: round; stroke-miterlimit: 10; fill: none; fill-rule: nonzero; opacity: 1;"  transform=" translate(-378, -296.2)" d="M 377.999 296.1999969482422 L 378.001 296.1999969482422" stroke-linecap="round" />
</g>
<g transform="matrix(0.13 0 0 -0.13 149.72 108.09)"  >
<path style="stroke: rgb(0,0,0); stroke-opacity: 0; stroke-width: 1; stroke-dasharray: none; stroke-linecap: butt; stroke-dashoffset: 0; stroke-linejoin: miter; stroke-miterlimit: 4; fill: rgb(116,113,121); fill-rule: nonzero; opacity: 1;"  transform=" translate(-1656.15, -1994.74)" d="M 1564 2289 c -85 -24 -180 -121 -204 -207 c -52 -187 79 -376 270 -390 c 97 -7 165 16 233 78 c 95 86 124 204 82 330 c -26 77 -111 162 -185 184 c -58 17 -146 20 -196 5 z" stroke-linecap="round" />
</g>
<g transform="matrix(0.13 0 0 -0.13 150.23 202.22)"  >
<path style="stroke: rgb(0,0,0); stroke-opacity: 0; stroke-width: 1; stroke-dasharray: none; stroke-linecap: butt; stroke-dashoffset: 0; stroke-linejoin: miter; stroke-miterlimit: 4; fill: rgb(116,113,121); fill-rule: nonzero; opacity: 1;"  transform=" translate(-1660, -1288.81)" d="M 1492 1505 c -156 -28 -313 -92 -385 -155 c -54 -47 -67 -84 -67 -194 l 0 -96 l 620 0 l 620 0 l 0 85 c 0 98 -15 143 -63 193 c -126 132 -476 212 -725 167 z" stroke-linecap="round" />
</g>
</svg>